<?xml version="1.0" standalone="no"?>
<!DOCTYPE svg PUBLIC "-//W3C//DTD SVG 20010904//EN"
 "http://www.w3.org/TR/2001/REC-SVG-20010904/DTD/svg10.dtd">
<svg version="1.0" xmlns="http://www.w3.org/2000/svg"
 width="300.000000pt" height="244.000000pt" viewBox="0 0 300.000000 244.000000"
 preserveAspectRatio="xMidYMid meet">
<metadata>
Created by potrace 1.10, written by Peter Selinger 2001-2011
</metadata>
<g transform="translate(0.000000,244.000000) scale(0.050000,-0.050000)"
fill="#000000" stroke="none">
<path d="M3940 3740 c-35 -35 -40 -67 -40 -240 l0 -200 -335 1 c-184 1 -672 9
-1085 18 -835 18 -919 11 -1154 -104 -532 -257 -625 -1019 -175 -1433 144
-133 169 -119 107 64 -81 239 34 512 251 594 143 54 1972 6 2129 -56 273 -108
397 -276 470 -642 12 -60 32 -112 44 -116 31 -10 953 882 977 945 28 74 17 87
-556 677 -531 545 -558 567 -633 492z"/>
<path d="M1930 2312 c-297 -93 -504 -384 -485 -682 52 -835 1365 -868 1365
-34 0 208 -9 223 -134 224 -156 0 -216 -71 -216 -259 0 -215 -259 -316 -500
-195 -238 120 -230 489 12 604 107 51 1355 28 1467 -26 181 -89 253 -319 157
-503 -81 -156 -115 -170 -458 -178 l-299 -7 -60 -88 c-33 -48 -97 -117 -142
-153 l-82 -65 158 -12 c334 -26 653 -20 765 13 615 184 673 1036 88 1303 -173
79 -1428 124 -1636 58z"/>
</g>
</svg>
