 <svg  version="1.0" xmlns="http://www.w3.org/2000/svg"  width="300.000000pt" height="244.000000pt" viewBox="0 0 300.000000 244.000000"  preserveAspectRatio="xMidYMid meet">  <g transform="translate(0.000000,244.000000) scale(0.100000,-0.100000)" fill="#ffffff" stroke="none"> <path d="M1970 1870 c-17 -17 -20 -33 -20 -120 l0 -100 -167 1 c-93 0 -337 4 -543 9 -417 9 -459 5 -577 -52 -69 -34 -148 -110 -182 -176 -72 -142 -64 -321 20 -454 35 -54 112 -128 134 -128 19 0 19 -1 -6 73 -24 71 -21 125 10 185 24 46 77 97 116 112 33 13 315 13 740 1 240 -7 276 -10 324 -29 137 -54 198 -138 235 -321 6 -30 16 -56 22 -58 16 -5 477 441 489 473 7 18 5 31 -5 48 -31 50 -533 556 -551 556 -11 0 -28 -9 -39 -20z"/> <path d="M965 1156 c-96 -30 -190 -119 -226 -215 -52 -137 8 -306 139 -390 167 -107 410 -58 497 100 27 49 30 62 30 147 0 104 -5 112 -67 112 -78 0 -108 -36 -108 -129 0 -81 -50 -121 -152 -121 -153 1 -236 146 -155 268 49 74 57 76 431 68 369 -8 374 -9 430 -79 59 -74 40 -205 -37 -261 -25 -18 -46 -21 -178 -25 l-150 -3 -30 -44 c-16 -24 -48 -58 -70 -76 l-41 -33 78 -6 c167 -13 327 -10 383 7 101 30 173 91 215 184 82 179 6 386 -171 467 -48 22 -77 27 -202 34 -229 12 -569 10 -616 -5z"/> </g> </svg> 